<?xml version="1.0" encoding="utf-8"?>
<!-- Generator: Adobe Illustrator 27.5.0, SVG Export Plug-In . SVG Version: 6.00 Build 0)  -->
<svg version="1.1" id="Layer_1" xmlns="http://www.w3.org/2000/svg" xmlns:xlink="http://www.w3.org/1999/xlink" x="0px" y="0px"
	 viewBox="0 0 2000 2000" style="enable-background:new 0 0 2000 2000;" xml:space="preserve">
<g>
	<rect style="fill:#FFFFFF;" width="2000" height="2000"/>
	<g>
		<g>
			<g>
				<path style="fill:none;stroke:#D3DFFF;stroke-width:2.5;stroke-miterlimit:10;" d="M359.122,1485.148
					c-1.446-49.418,8.51-99.788,35.469-143.54s71.956-80.39,126.976-95.838c70.344-19.752,146.528-3.81,219.836,5.135
					c96.759,11.807,201.861,9.507,283.593-36.245c63.68-35.646,105.976-93.667,167.333-132.166
					c111.212-69.782,275.285-61.302,387.083,7.795c111.798,69.097,171.799,189.395,171.916,307.202
					c0.131,130.908-72.782,259.315-188.676,344.456H475.132C405.599,1669.224,361.86,1578.719,359.122,1485.148z"/>
			</g>
			<path style="fill:#EDF2FF;" d="M1751.291,1449.518c1.404-56.227-8.263-113.536-34.442-163.316
				c-26.179-49.781-69.873-91.465-123.3-109.042c-68.308-22.473-142.287-4.335-213.472,5.842
				c-93.958,13.433-196.017,10.816-275.383-41.238c-61.837-40.557-102.908-106.571-162.489-150.375
				c-107.993-79.396-267.316-69.747-375.877,8.869c-108.561,78.616-166.825,215.488-166.939,349.526
				c-0.127,148.943,70.675,295.041,183.214,391.912h1056.038C1706.159,1658.955,1748.632,1555.98,1751.291,1449.518z"/>
		</g>
		<g>
			<g>
				<g>
					<path style="fill:#102048;" d="M944.825,1635.886c-12.961,9.367-26.351,16.119-44.435,19.318l4.26,12.862
						c-31.541,37.095-37.012,59.964-32.304,73.224l97.205-57.144L944.825,1635.886z"/>
					<path style="fill:#F9B384;" d="M921.557,1580.419l-40.042,17.796l18.875,56.988c18.083-3.199,31.474-9.95,44.435-19.318
						L921.557,1580.419z"/>
				</g>
				<g>
					<path style="fill:#F9B384;" d="M694.655,1687.774v-61.974l-42.711-0.89l-8.703,62.373
						C662.086,1690.706,679.135,1690.7,694.655,1687.774z"/>
					<path style="fill:#102048;" d="M643.241,1687.283l-1.975,14.151c-46.362,14.881-61.074,26.293-64.067,40.042h117.455v-53.702
						C679.135,1690.7,662.086,1690.706,643.241,1687.283z"/>
				</g>
				<path style="fill:#1F3C88;" d="M835.245,1130.174l-82.299,100.558l-5.793,7.101l-9.316,99.57l-30.271,323.99l-78.321-1.789
					c-6.967-210.298-17.111-428.925,5.793-576.599l8.008-52.481l186.861,13.347L835.245,1130.174z"/>
				<path style="fill:#F9B384;" d="M485.104,806.06l-5.939-6.739c-3.56-4.039-8.754-6.254-14.133-6.026l-74.351,3.147
					c-0.417,0.018-0.591,0.56-0.261,0.815c16.134,12.492,36.18,19.049,59.091,21.26l22.913,31.366L485.104,806.06z"/>
				<path style="fill:#102048;" d="M752.946,1230.731l-5.793,7.101l-9.316,99.57c-28.723-62.118-20.047-151.17-20.047-151.17
					L752.946,1230.731z"/>
				<path style="fill:#1F3C88;" d="M835.245,1130.174c20.396,153.951,61.825,319.465,112.561,480.944l-73.41,25.36
					c-89.871-192.645-125.908-296.753-156.607-450.245L835.245,1130.174z"/>
				<polygon style="fill:#F9B384;" points="747.763,770.245 735.138,824.523 762.492,852.107 795.739,845.434 803.314,767.575 				
					"/>
				<path style="opacity:0.6;fill:#102048;" d="M652.389,1074.783c37.372,8.676,88.092,30.031,152.158,10.678l8.008-29.364
					l-154.16-4.004L652.389,1074.783z"/>
				<path style="fill:#FFFFFF;" d="M736.476,813.845c0,0,24.025,36.037,61.397,12.013l33.368,58.06l-15.349,181.522
					c-55.97,21.463-109.975,14.369-162.836-9.343l40.042-212.22L736.476,813.845z"/>
				<g style="opacity:0.3;">
					<path style="fill:#1F3C88;" d="M733.139,836.758c3.707,5.132,8.038,9.432,12.997,12.706c4.964,3.232,10.458,5.531,16.192,6.563
						c5.714,1.13,11.645,0.981,17.397-0.316c5.766-1.326,11.288-3.911,16.591-7.386c-3.763,5.096-9.198,9.121-15.389,11.375
						c-6.184,2.321-13.063,2.772-19.599,1.568c-6.523-1.282-12.73-4.185-17.705-8.501
						C738.629,848.506,734.849,842.872,733.139,836.758z"/>
				</g>
				<path style="fill:#708CD5;" d="M737.477,814.513l-50.911-0.222c-16.278,0.145-32.242,4.502-46.337,12.646l-68.59,39.63
					l-86.534-60.507l-35.37,38.707l88.197,75.535c13.988,11.472,32.749,15.275,50.1,10.155l53.68-15.84l-54.056,195.536
					c37.94,10.675,67.156,17.727,102.773,4.672C709.782,1070.779,743.656,965.481,737.477,814.513z"/>
				<path style="fill:#102048;" d="M745.819,715.744c0,0-14.498,2.063-28.029-19.02c-12.632-19.683,8.563-65.262,45.38-46.382
					c23.358-22.69,56.786-12.515,79.796,20.48c0,0,8.569-1.03,16.971,9.551c11.328,14.265,6.524,60.936-28.3,79.397L745.819,715.744
					z"/>
				<path style="fill:#E28B6D;" d="M745.05,781.88c0,0,6.682,21.766,22.792,24.624c20.688,3.67,30.782-20.73,30.782-20.73
					L745.05,781.88z"/>
				<path style="fill:#F9B384;" d="M832.069,707.335l-4.218,39.855c0,0-7.127,24.319-31.446,43.619
					c-24.345,19.3-56.859-1.255-58.541-28.937c-0.027-0.294-0.027-0.614-0.054-0.907c-0.427-7.501-0.454-14.495-0.214-20.902
					c0.934-26.507,6.353-42.818,6.353-42.818l43.218-18.446L832.069,707.335z"/>
				<path style="fill:#102048;" d="M826.498,741.834c-11.535-5.002-15.997-16.63-16.363-32.097
					c-24.646,5.703-47.49,3.349-68.914-5.349l-11.643-21.398l49.089-18.566l56.012,14.79l12.272,37.132L826.498,741.834z"/>
				<path style="fill:#102048;" d="M790.095,736.853c-0.81,2.951-3.148,4.881-5.223,4.311c-2.075-0.57-3.1-3.423-2.29-6.373
					c0.81-2.951,3.148-4.881,5.223-4.311C789.88,731.049,790.905,733.903,790.095,736.853z"/>
				
					<ellipse transform="matrix(0.1767 -0.9843 0.9843 0.1767 -98.9899 1341.9736)" style="fill:#102048;" cx="752.669" cy="730.158" rx="5.54" ry="3.895"/>
				<path style="fill:#E28B6D;" d="M766.452,728.371c0.886,2.903,0.527,6.224-0.958,9.014c-0.732,1.399-1.752,2.68-2.984,3.717
					c-1.206,1.027-2.451,1.728-3.386,2.54c-0.913,0.763-1.643,1.684-1.83,2.557c-0.24,0.806,0.076,1.729,0.769,2.852
					c1.526,2.252,3.136,4.691,4.544,7.162l-0.981,0.778c-2.059-2.032-4.003-4.029-5.873-6.334c-0.931-1.146-1.935-3.05-1.518-5.094
					c0.419-1.935,1.599-3.344,2.854-4.375c1.256-1.002,2.492-1.723,3.504-2.475c0.993-0.735,1.823-1.672,2.543-2.711
					c1.387-2.111,2.185-4.704,2.084-7.408L766.452,728.371z"/>
				<path style="fill:#102048;" d="M778.75,723.902c2.937-2.12,6.712-3.578,10.714-3.056c1.976,0.27,3.874,1.136,5.378,2.372
					c1.527,1.222,2.65,2.802,3.446,4.468l-0.852,0.603c-2.554-2.445-5.226-4.371-8.362-4.815c-3.132-0.48-6.463,0.373-9.861,1.362
					L778.75,723.902z"/>
				<path style="fill:#102048;" d="M747.241,718.576c1.203-1.088,2.57-2.031,4.131-2.685c1.547-0.663,3.322-1.049,5.142-0.858
					c1.819,0.194,3.561,1.031,4.846,2.216c1.313,1.169,2.198,2.645,2.8,4.166l-0.88,0.56c-2.21-2.215-4.431-4.017-7.064-4.302
					c-2.642-0.319-5.498,0.723-8.428,1.791L747.241,718.576z"/>
				<path style="fill:#FFFFFF;" d="M755.565,764.248l20.314,0.58c-0.565,4.024-2.16,7.304-4.961,9.713
					c-3.713,3.194-9.468,2.805-12.613-0.949C756.15,771.02,755.19,767.923,755.565,764.248z"/>
				
					<ellipse transform="matrix(0.7071 -0.7071 0.7071 0.7071 -302.0895 783.6242)" style="opacity:0.4;fill:#FC8879;" cx="794.873" cy="756.466" rx="10.856" ry="10.856"/>
				<path style="opacity:0.4;fill:#FC8879;" d="M745.659,750.553c0,4.939-3.31,9.129-7.848,10.411
					c-0.427-7.501-0.454-14.495-0.214-20.902C742.242,741.263,745.659,745.508,745.659,750.553z"/>
				<path style="fill:#708CD5;" d="M877.956,1018.725l-24.025,116.788l55.168-1.78l21.564-85.657
					c10.295-40.894,7.26-84.072-9.079-122.948c-7.985-18.998-18.148-39.151-29.992-60.195c-5.69-10.109-15.141-17.57-26.33-20.632
					l-67.64-18.443c-33.149,102.9-48.649,202.093-32.673,294.528l76.301-9.565c0.995-50.938-0.263-107.719,18.019-176.183
					C859.27,934.638,880.626,964.001,877.956,1018.725z"/>
				<path style="fill:#F9B384;" d="M817.373,740.701c9.126-6.758,13.846-7.345,19.824-2.057c7.224,6.39,5.349,34.082-22.657,24.093
					L817.373,740.701z"/>
				<path style="fill:#E28B6D;" d="M822.044,750.113c-0.278-1.556-0.098-3.273,0.626-4.793c0.699-1.532,1.894-2.833,3.325-3.734
					c1.435-0.894,3.142-1.413,4.894-1.282c1.731,0.077,3.567,1.084,4.279,2.664l-0.847,0.61c-1.053-0.844-2.253-1.012-3.449-0.929
					c-1.203,0.111-2.413,0.547-3.482,1.199c-2.181,1.315-3.653,3.485-4.303,6.266H822.044z"/>
				<g>
					
						<rect x="605.543" y="917.362" transform="matrix(0.2689 -0.9632 0.9632 0.2689 -416.3137 1288.9155)" style="fill:#102048;" width="70.696" height="2.669"/>
				</g>
				<g>
					<path style="fill:#102048;" d="M851.914,971.541l-2.639-0.396c1.99-13.269,14.193-58.939,14.712-60.878l2.578,0.691
						C866.439,911.431,853.882,958.42,851.914,971.541z"/>
				</g>
				<g>
					<path style="fill:#FBC343;" d="M922.645,1226.741c-9.889,9.544-21.142,16.812-33.092,21.837
						c-9.861,4.195-20.238,6.831-30.76,7.937c-13.835,1.489-27.87,0.288-41.343-3.554c-12.201-3.479-23.929-9.112-34.517-16.926
						c-4.88-3.603-9.528-7.644-13.87-12.158c-20.275-21.072-30.376-48.208-30.365-75.334c-0.017-28.475,11.104-56.901,33.241-78.224
						c4.563-4.365,9.369-8.286,14.396-11.689c5.22-3.556,10.659-6.596,16.282-9.131c3.845-1.737,7.758-3.21,11.74-4.479
						c5.373-1.703,10.859-2.987,16.399-3.853c13.939-2.132,28.186-1.538,41.93,1.76c6.819,1.6,13.508,3.915,19.985,6.895
						c7.96,3.658,15.559,8.349,22.619,14.013c3.566,2.844,6.972,5.972,10.232,9.349
						C967.119,1116.391,965.842,1185.12,922.645,1226.741z"/>
					<path style="opacity:0.4;fill:#BB9132;" d="M909.797,1088.32c0.618,0.697,1.208,1.394,1.785,2.105
						c28.744,34.705,26.284,86.246-6.709,118.026c-3.464,3.337-7.128,6.327-10.963,8.971c-9.505,6.57-20.013,11.037-30.893,13.385
						c-14.557,3.17-29.77,2.529-44.063-1.854c-12.056-3.682-23.458-10.068-33.261-19.099c-0.351-0.308-0.701-0.644-1.051-0.98
						c-30.623-34.699-28.739-87.704,4.924-120.13c3.101-2.987,6.375-5.71,9.768-8.143c9.162-6.563,19.287-11.119,29.801-13.679
						c19.87-4.868,41.088-2.632,59.651,6.631C896.314,1077.314,903.409,1082.247,909.797,1088.32z"/>
					<path style="opacity:0.4;fill:#BB9132;" d="M912.154,1091.408c0.901,0.936,1.789,1.885,2.621,2.861
						c-33.523-31.906-86.461-32.104-120.001,0.202c-33.54,32.307-35.323,85.215-4.694,119.909c-0.944-0.868-1.859-1.791-2.76-2.727
						c-33.314-34.585-32.386-89.551,2.086-122.756C823.878,1055.692,878.84,1056.823,912.154,1091.408z"/>
					<path style="opacity:0.3;fill:#FFFFFF;" d="M830.756,1041.166l-1.615,25.706l-0.001,0.06c-2.204,0.53-4.362,1.156-6.509,1.866
						c-0.384,0.126-0.744,0.24-1.127,0.366c-0.3,0.115-0.636,0.218-0.96,0.345c-0.06-0.001-0.108,0.022-0.18,0.057
						c-2.88,1.034-5.714,2.224-8.503,3.57c-0.601,0.29-1.226,0.592-1.84,0.917c-0.397,0.221-0.83,0.43-1.227,0.651
						c-0.818,0.454-1.624,0.873-2.431,1.351c-0.205,0.128-0.397,0.221-0.59,0.374c-0.192,0.093-0.373,0.21-0.554,0.327
						c-0.855,0.501-1.722,1.038-2.578,1.599c-0.144,0.07-0.253,0.152-0.385,0.245c-0.409,0.257-0.783,0.526-1.193,0.783
						c-0.579,0.398-1.157,0.796-1.724,1.217l3.279-31.103c3.845-1.737,7.758-3.21,11.74-4.479
						C819.729,1043.315,825.216,1042.031,830.756,1041.166z"/>
					<path style="opacity:0.15;fill:#FFFFFF;" d="M818.955,1228.952l-1.506,24.016c-12.211-3.479-23.928-9.13-34.522-16.941
						l2.752-26.105l0.015-0.068c0.715,0.658,1.443,1.303,2.186,1.934C797.166,1219.807,807.785,1225.547,818.955,1228.952z"/>
					<path style="opacity:0.15;fill:#FFFFFF;" d="M915.289,1063.829l-3.644,26.157l-0.063,0.438
						c-0.576-0.71-1.167-1.407-1.785-2.105c-6.388-6.073-13.483-11.006-21.011-14.768l0.016-0.096l3.871-23.629
						C900.628,1053.473,908.235,1058.156,915.289,1063.829z"/>
					<path style="opacity:0.3;fill:#FFFFFF;" d="M893.91,1217.421l-4.342,31.164c-9.885,4.19-20.249,6.822-30.763,7.928
						l4.212-25.707C873.897,1228.458,884.405,1223.991,893.91,1217.421z"/>
					<g>
						<g>
							<g style="opacity:0.4;">
								<path style="fill:#BB9132;" d="M886.314,1173.615l9.398,9.756l-13.384,12.544l-8.977-9.32
									c-9.3,7.937-20.107,13.78-28.52,15.604l-7.884-21.55c9.108-2.163,18.955-7.412,25.726-13.934
									c5.891-5.674,6.817-8.939,4.783-11.051c-7.453-7.738-35.462,31.275-57.56,8.334c-9.57-9.935-10.408-25.231,2.063-41.136
									l-10.885-11.3l12.397-11.942l10.713,11.121c7.092-5.645,15.04-10.072,22.761-12.085l8.237,21.044
									c-9.035,2.769-16.188,6.775-21.549,11.939c-6.07,5.847-6.306,9.469-4.272,11.581c7.108,7.38,35.207-31.54,57.05-8.863
									C895.554,1143.847,897.647,1158.118,886.314,1173.615z"/>
							</g>
							<g>
								<path style="fill:#FBC343;" d="M884.164,1171.37l9.351,9.708l-12.336,11.882l-8.932-9.273
									c-9.254,7.898-20.007,13.711-28.378,15.526l-7.844-21.443c9.062-2.152,18.86-7.375,25.598-13.865
									c5.862-5.646,6.783-8.895,4.759-10.996c-7.416-7.699-35.286,31.119-57.273,8.292c-9.522-9.886-10.356-25.106,2.053-40.931
									l-9.186-9.537l12.336-11.882l9.015,9.359c7.057-5.617,14.965-10.022,22.647-12.025l8.196,20.939
									c-8.99,2.755-16.107,6.741-21.441,11.88c-6.04,5.818-6.275,9.422-4.251,11.523c7.073,7.343,35.032-31.382,56.766-8.819
									C894.339,1141.152,895.44,1155.95,884.164,1171.37z"/>
							</g>
						</g>
						<g>
							<defs>
								<path id="SVGID_1_" d="M884.164,1171.37l9.351,9.708l-12.336,11.882l-8.932-9.273c-9.254,7.898-20.007,13.711-28.378,15.526
									l-7.844-21.443c9.062-2.152,18.86-7.375,25.598-13.865c5.862-5.646,6.783-8.895,4.759-10.996
									c-7.416-7.699-35.286,31.119-57.273,8.292c-9.522-9.886-10.356-25.106,2.053-40.931l-9.186-9.537l12.336-11.882l9.015,9.359
									c7.057-5.617,14.965-10.022,22.647-12.025l8.196,20.939c-8.99,2.755-16.107,6.741-21.441,11.88
									c-6.04,5.818-6.275,9.422-4.251,11.523c7.073,7.343,35.032-31.382,56.766-8.819
									C894.339,1141.152,895.44,1155.95,884.164,1171.37z"/>
							</defs>
							<clipPath id="SVGID_00000104681015686396638230000010474082548318487212_">
								<use xlink:href="#SVGID_1_"  style="overflow:visible;"/>
							</clipPath>
							<g style="clip-path:url(#SVGID_00000104681015686396638230000010474082548318487212_);">
								<polygon style="opacity:0.3;fill:#FFFFFF;" points="795.151,1007.69 765.036,1292.948 807.576,1297.231 825.701,1008.668 
																	"/>
								<polygon style="opacity:0.3;fill:#FFFFFF;" points="849.271,1318.009 903.467,987.204 929.592,993.994 883.057,1328.306 
																	"/>
							</g>
						</g>
					</g>
				</g>
				<path style="fill:#F9B384;" d="M863.795,1128.342l-6.958,20.651c0,0-19.302,23.859-16.586,26.895
					c5.673,6.34,20.521-9.009,20.521-9.009l-11.98,30.533c-0.657,2.024,0.554,4.172,2.631,4.637
					c6.469,1.451,20.139,2.848,32.408-6.798c15.951-12.542,12.241-42.688,12.241-42.688l6.835-22.348L863.795,1128.342z"/>
				<path style="fill:#708CD5;" d="M928.008,1058.633l-6.513,25.867l-0.134,0.534l-1.041,4.084l-11.212,44.606l-14.415,0.481
					l-3.764,0.107l-36.998,1.201l0.587-2.91l0.587-2.83l1.869-8.996l0.56-2.83l4.244-20.555l0.534-2.696l5.686-27.629l1.441-7.021
					l0.054-0.134v-0.027l6.033-28.469c5.579,0.801,11.078,2.029,16.444,3.657C905.451,1039.213,925.672,1042.75,928.008,1058.633z"
					/>
			</g>
			<g>
				<g>
					<path style="fill:#FBC343;" d="M481.557,577.89c-10.245-46.973-56.939-76.6-103.92-65.667
						c-44.606,10.38-73.615,54.622-65.301,99.659c3.963,21.466,15.471,39.498,31.214,51.982
						c12.423,9.852,21.159,23.602,24.538,39.093l0,0l100.052-21.821v0c-3.375-15.474-1.185-31.604,6.008-45.714
						C482.882,618.288,485.975,598.146,481.557,577.89z"/>
					<path style="fill:none;stroke:#FFFFFF;stroke-width:5;stroke-miterlimit:10;" d="M374.46,596.654l-3.315-1.512
						c-3.4-1.551-7.442,1.011-7.145,4.737c0.051,0.639,0.213,1.283,0.499,1.907l44.675,97.602l20.848-4.547L430,587.5
						c0-0.226-0.013-0.447-0.038-0.665c-0.5-4.299-6.159-5.674-8.891-2.317l-1.236,1.519
						C408.888,599.488,390.239,603.852,374.46,596.654z"/>
					<path style="fill:#102048;" d="M449.089,755.164c1.148,5.263-5.277,11.133-14.35,13.112
						c-9.073,1.979-17.359-0.683-18.507-5.946c-1.148-5.263,5.277-11.133,14.35-13.112
						C439.655,747.24,447.941,749.901,449.089,755.164z"/>
					<polygon style="fill:#1F3C88;" points="368.087,702.956 468.139,681.135 477.233,722.834 377.246,744.88 					"/>
					<path style="fill:#1F3C88;" d="M377.023,743.93l100.052-21.821l-6.734,15.816c-3.23,7.586-9.928,13.143-17.981,14.917
						l-39.941,8.795c-8.107,1.785-16.574-0.486-22.698-6.089C383.662,750.004,377.023,743.93,377.023,743.93z"/>
					<path style="fill:#708CD5;" d="M478.278,703.036l-109.802,23.948c-1.646,0.359-3.286-0.694-3.645-2.34l0,0
						c-0.359-1.646,0.694-3.286,2.34-3.645l109.802-23.948c1.646-0.359,3.286,0.694,3.645,2.34l0,0
						C480.977,701.037,479.924,702.677,478.278,703.036z"/>
					<path style="fill:#708CD5;" d="M483.11,725.19l-109.802,23.947c-1.646,0.359-3.286-0.694-3.645-2.34l0,0
						c-0.359-1.646,0.694-3.286,2.34-3.645l109.802-23.947c1.646-0.359,3.286,0.694,3.645,2.339v0
						C485.809,723.191,484.756,724.831,483.11,725.19z"/>
				</g>
				<g>
					
						<line style="fill:none;stroke:#FBC343;stroke-width:14.3432;stroke-linecap:round;stroke-linejoin:round;stroke-miterlimit:10;" x1="284.872" y1="468.025" x2="331.072" y2="495.558"/>
					
						<line style="fill:none;stroke:#FBC343;stroke-width:14.3432;stroke-linecap:round;stroke-linejoin:round;stroke-miterlimit:10;" x1="424.995" y1="416.328" x2="401.228" y2="471.818"/>
					
						<line style="fill:none;stroke:#FBC343;stroke-width:14.3432;stroke-linecap:round;stroke-linejoin:round;stroke-miterlimit:10;" x1="343.047" y1="414.299" x2="363.271" y2="473.529"/>
				</g>
			</g>
		</g>
		<g>
			<g>
				<g>
					<rect x="1093.103" y="1258.87" style="fill:#FBC343;" width="217.322" height="26.917"/>
					<rect x="1149.812" y="1258.87" style="opacity:0.4;fill:#BB9132;" width="89.18" height="26.917"/>
					<rect x="1109.902" y="1258.87" style="opacity:0.4;fill:#FFFFFF;" width="20.585" height="26.917"/>
					<rect x="1268.22" y="1258.87" style="opacity:0.4;fill:#FFFFFF;" width="20.585" height="26.917"/>
				</g>
				<g>
					<rect x="1093.103" y="1312.652" style="fill:#FBC343;" width="217.322" height="26.917"/>
					<rect x="1149.812" y="1312.652" style="opacity:0.4;fill:#BB9132;" width="89.18" height="26.917"/>
					<rect x="1109.902" y="1312.652" style="opacity:0.4;fill:#FFFFFF;" width="20.585" height="26.917"/>
					<rect x="1268.22" y="1312.652" style="opacity:0.4;fill:#FFFFFF;" width="20.585" height="26.917"/>
				</g>
				<g>
					<rect x="1085.42" y="1285.738" style="fill:#FBC343;" width="217.322" height="26.917"/>
					<rect x="1142.129" y="1285.738" style="opacity:0.4;fill:#BB9132;" width="89.18" height="26.917"/>
					<rect x="1102.219" y="1285.738" style="opacity:0.4;fill:#FFFFFF;" width="20.585" height="26.917"/>
					<rect x="1260.536" y="1285.738" style="opacity:0.4;fill:#FFFFFF;" width="20.586" height="26.917"/>
				</g>
				<g>
					<rect x="1093.103" y="1366.433" style="fill:#FBC343;" width="217.322" height="26.917"/>
					<rect x="1149.812" y="1366.433" style="opacity:0.4;fill:#BB9132;" width="89.18" height="26.917"/>
					<rect x="1109.902" y="1366.433" style="opacity:0.4;fill:#FFFFFF;" width="20.585" height="26.917"/>
					<rect x="1268.22" y="1366.433" style="opacity:0.4;fill:#FFFFFF;" width="20.585" height="26.917"/>
				</g>
				<g>
					<rect x="1104.079" y="1339.52" style="fill:#FBC343;" width="217.322" height="26.917"/>
					<rect x="1160.788" y="1339.52" style="opacity:0.4;fill:#BB9132;" width="89.179" height="26.917"/>
					<rect x="1120.878" y="1339.52" style="opacity:0.4;fill:#FFFFFF;" width="20.585" height="26.917"/>
					<rect x="1279.195" y="1339.52" style="opacity:0.4;fill:#FFFFFF;" width="20.586" height="26.917"/>
				</g>
				<g>
					<rect x="1093.103" y="1420.215" style="fill:#FBC343;" width="217.322" height="26.917"/>
					<rect x="1149.812" y="1420.215" style="opacity:0.4;fill:#BB9132;" width="89.18" height="26.917"/>
					<rect x="1109.902" y="1420.215" style="opacity:0.4;fill:#FFFFFF;" width="20.585" height="26.917"/>
					<rect x="1268.22" y="1420.215" style="opacity:0.4;fill:#FFFFFF;" width="20.585" height="26.917"/>
				</g>
				<g>
					<rect x="1083.225" y="1393.301" style="fill:#FBC343;" width="217.322" height="26.917"/>
					<rect x="1139.933" y="1393.301" style="opacity:0.4;fill:#BB9132;" width="89.18" height="26.917"/>
					<rect x="1100.024" y="1393.301" style="opacity:0.4;fill:#FFFFFF;" width="20.585" height="26.917"/>
					<rect x="1258.341" y="1393.301" style="opacity:0.4;fill:#FFFFFF;" width="20.585" height="26.917"/>
				</g>
				<g>
					<rect x="1093.103" y="1473.997" style="fill:#FBC343;" width="217.322" height="26.917"/>
					<rect x="1149.812" y="1473.997" style="opacity:0.4;fill:#BB9132;" width="89.18" height="26.917"/>
					<rect x="1109.902" y="1473.997" style="opacity:0.4;fill:#FFFFFF;" width="20.585" height="26.917"/>
					<rect x="1268.22" y="1473.997" style="opacity:0.4;fill:#FFFFFF;" width="20.585" height="26.917"/>
				</g>
				<g>
					<rect x="1093.103" y="1447.083" style="fill:#FBC343;" width="217.322" height="26.917"/>
					<rect x="1149.812" y="1447.083" style="opacity:0.4;fill:#BB9132;" width="89.18" height="26.917"/>
					<rect x="1109.902" y="1447.083" style="opacity:0.4;fill:#FFFFFF;" width="20.585" height="26.917"/>
					<rect x="1268.22" y="1447.083" style="opacity:0.4;fill:#FFFFFF;" width="20.585" height="26.917"/>
				</g>
				<g>
					<rect x="1077.087" y="1527.83" style="fill:#FBC343;" width="217.322" height="26.917"/>
					<rect x="1133.795" y="1527.83" style="opacity:0.4;fill:#BB9132;" width="89.179" height="26.917"/>
					<rect x="1093.885" y="1527.83" style="opacity:0.4;fill:#FFFFFF;" width="20.585" height="26.917"/>
					<rect x="1252.203" y="1527.83" style="opacity:0.4;fill:#FFFFFF;" width="20.585" height="26.917"/>
				</g>
				<g>
					<rect x="1093.103" y="1500.917" style="fill:#FBC343;" width="217.322" height="26.917"/>
					<rect x="1149.812" y="1500.917" style="opacity:0.4;fill:#BB9132;" width="89.18" height="26.917"/>
					<rect x="1109.902" y="1500.917" style="opacity:0.4;fill:#FFFFFF;" width="20.585" height="26.917"/>
					<rect x="1268.22" y="1500.917" style="opacity:0.4;fill:#FFFFFF;" width="20.585" height="26.917"/>
				</g>
				<g>
					<rect x="1093.103" y="1581.664" style="fill:#FBC343;" width="217.322" height="26.917"/>
					<rect x="1149.812" y="1581.664" style="opacity:0.4;fill:#BB9132;" width="89.18" height="26.917"/>
					<rect x="1109.902" y="1581.664" style="opacity:0.4;fill:#FFFFFF;" width="20.585" height="26.917"/>
					<rect x="1268.22" y="1581.664" style="opacity:0.4;fill:#FFFFFF;" width="20.585" height="26.917"/>
				</g>
				<g>
					<rect x="1093.103" y="1554.75" style="fill:#FBC343;" width="217.322" height="26.917"/>
					<rect x="1149.812" y="1554.75" style="opacity:0.4;fill:#BB9132;" width="89.18" height="26.917"/>
					<rect x="1109.902" y="1554.75" style="opacity:0.4;fill:#FFFFFF;" width="20.585" height="26.917"/>
					<rect x="1268.22" y="1554.75" style="opacity:0.4;fill:#FFFFFF;" width="20.585" height="26.917"/>
				</g>
				<g>
					<rect x="1093.103" y="1635.498" style="fill:#FBC343;" width="217.322" height="26.917"/>
					<rect x="1149.812" y="1635.498" style="opacity:0.4;fill:#BB9132;" width="89.18" height="26.917"/>
					<rect x="1109.902" y="1635.498" style="opacity:0.4;fill:#FFFFFF;" width="20.585" height="26.917"/>
					<rect x="1268.22" y="1635.498" style="opacity:0.4;fill:#FFFFFF;" width="20.585" height="26.917"/>
				</g>
				<g>
					<rect x="1093.103" y="1608.584" style="fill:#FBC343;" width="217.322" height="26.917"/>
					<rect x="1149.812" y="1608.584" style="opacity:0.4;fill:#BB9132;" width="89.18" height="26.917"/>
					<rect x="1109.902" y="1608.584" style="opacity:0.4;fill:#FFFFFF;" width="20.585" height="26.917"/>
					<rect x="1268.22" y="1608.584" style="opacity:0.4;fill:#FFFFFF;" width="20.585" height="26.917"/>
				</g>
				<g>
					<rect x="1093.103" y="1689.331" style="fill:#FBC343;" width="217.322" height="26.917"/>
					<rect x="1149.812" y="1689.331" style="opacity:0.4;fill:#BB9132;" width="89.18" height="26.917"/>
					<rect x="1109.902" y="1689.331" style="opacity:0.4;fill:#FFFFFF;" width="20.585" height="26.917"/>
					<rect x="1268.22" y="1689.331" style="opacity:0.4;fill:#FFFFFF;" width="20.585" height="26.917"/>
				</g>
				<g>
					<rect x="1093.103" y="1662.418" style="fill:#FBC343;" width="217.322" height="26.917"/>
					<rect x="1149.812" y="1662.418" style="opacity:0.4;fill:#BB9132;" width="89.18" height="26.917"/>
					<rect x="1109.902" y="1662.418" style="opacity:0.4;fill:#FFFFFF;" width="20.585" height="26.917"/>
					<rect x="1268.22" y="1662.418" style="opacity:0.4;fill:#FFFFFF;" width="20.585" height="26.917"/>
				</g>
				<g>
					<rect x="1093.103" y="1716.251" style="fill:#FBC343;" width="217.322" height="26.917"/>
					<rect x="1149.812" y="1716.251" style="opacity:0.4;fill:#BB9132;" width="89.18" height="26.917"/>
					<rect x="1109.902" y="1716.251" style="opacity:0.4;fill:#FFFFFF;" width="20.585" height="26.917"/>
					<rect x="1268.22" y="1716.251" style="opacity:0.4;fill:#FFFFFF;" width="20.585" height="26.917"/>
				</g>
			</g>
			<g>
				<g>
					<rect x="1377.267" y="1366.433" style="fill:#FBC343;" width="217.322" height="26.917"/>
					<rect x="1433.976" y="1366.433" style="opacity:0.4;fill:#BB9132;" width="89.179" height="26.917"/>
					<rect x="1394.066" y="1366.433" style="opacity:0.4;fill:#FFFFFF;" width="20.585" height="26.917"/>
					<rect x="1552.384" y="1366.433" style="opacity:0.4;fill:#FFFFFF;" width="20.585" height="26.917"/>
				</g>
				<g>
					<rect x="1350.573" y="1420.215" style="fill:#FBC343;" width="217.322" height="26.917"/>
					<rect x="1407.281" y="1420.215" style="opacity:0.4;fill:#BB9132;" width="89.18" height="26.917"/>
					<rect x="1367.371" y="1420.215" style="opacity:0.4;fill:#FFFFFF;" width="20.585" height="26.917"/>
					<rect x="1525.689" y="1420.215" style="opacity:0.4;fill:#FFFFFF;" width="20.585" height="26.917"/>
				</g>
				<g>
					<rect x="1340.694" y="1393.301" style="fill:#FBC343;" width="217.322" height="26.917"/>
					<rect x="1397.403" y="1393.301" style="opacity:0.4;fill:#BB9132;" width="89.18" height="26.917"/>
					<rect x="1357.493" y="1393.301" style="opacity:0.4;fill:#FFFFFF;" width="20.585" height="26.917"/>
					<rect x="1515.811" y="1393.301" style="opacity:0.4;fill:#FFFFFF;" width="20.585" height="26.917"/>
				</g>
				<g>
					<rect x="1350.573" y="1473.997" style="fill:#FBC343;" width="217.322" height="26.917"/>
					<rect x="1407.281" y="1473.997" style="opacity:0.4;fill:#BB9132;" width="89.18" height="26.917"/>
					<rect x="1367.371" y="1473.997" style="opacity:0.4;fill:#FFFFFF;" width="20.585" height="26.917"/>
					<rect x="1525.689" y="1473.997" style="opacity:0.4;fill:#FFFFFF;" width="20.585" height="26.917"/>
				</g>
				<g>
					<rect x="1339.597" y="1447.083" style="fill:#FBC343;" width="217.322" height="26.917"/>
					<rect x="1396.305" y="1447.083" style="opacity:0.4;fill:#BB9132;" width="89.18" height="26.917"/>
					<rect x="1356.396" y="1447.083" style="opacity:0.4;fill:#FFFFFF;" width="20.585" height="26.917"/>
					<rect x="1514.713" y="1447.083" style="opacity:0.4;fill:#FFFFFF;" width="20.585" height="26.917"/>
				</g>
				<g>
					<rect x="1350.573" y="1527.83" style="fill:#FBC343;" width="217.322" height="26.917"/>
					<rect x="1407.281" y="1527.83" style="opacity:0.4;fill:#BB9132;" width="89.18" height="26.917"/>
					<rect x="1367.371" y="1527.83" style="opacity:0.4;fill:#FFFFFF;" width="20.585" height="26.917"/>
					<rect x="1525.689" y="1527.83" style="opacity:0.4;fill:#FFFFFF;" width="20.585" height="26.917"/>
				</g>
				<g>
					<rect x="1350.573" y="1500.917" style="fill:#FBC343;" width="217.322" height="26.917"/>
					<rect x="1407.281" y="1500.917" style="opacity:0.4;fill:#BB9132;" width="89.18" height="26.917"/>
					<rect x="1367.371" y="1500.917" style="opacity:0.4;fill:#FFFFFF;" width="20.585" height="26.917"/>
					<rect x="1525.689" y="1500.917" style="opacity:0.4;fill:#FFFFFF;" width="20.585" height="26.917"/>
				</g>
				<g>
					<rect x="1371.928" y="1581.664" style="fill:#FBC343;" width="217.322" height="26.917"/>
					<rect x="1428.637" y="1581.664" style="opacity:0.4;fill:#BB9132;" width="89.18" height="26.917"/>
					<rect x="1388.727" y="1581.664" style="opacity:0.4;fill:#FFFFFF;" width="20.585" height="26.917"/>
					<rect x="1547.045" y="1581.664" style="opacity:0.4;fill:#FFFFFF;" width="20.585" height="26.917"/>
				</g>
				<g>
					<rect x="1350.573" y="1554.75" style="fill:#FBC343;" width="217.322" height="26.917"/>
					<rect x="1407.281" y="1554.75" style="opacity:0.4;fill:#BB9132;" width="89.18" height="26.917"/>
					<rect x="1367.371" y="1554.75" style="opacity:0.4;fill:#FFFFFF;" width="20.585" height="26.917"/>
					<rect x="1525.689" y="1554.75" style="opacity:0.4;fill:#FFFFFF;" width="20.585" height="26.917"/>
				</g>
				<g>
					<rect x="1350.573" y="1635.498" style="fill:#FBC343;" width="217.322" height="26.917"/>
					<rect x="1407.281" y="1635.498" style="opacity:0.4;fill:#BB9132;" width="89.18" height="26.917"/>
					<rect x="1367.371" y="1635.498" style="opacity:0.4;fill:#FFFFFF;" width="20.585" height="26.917"/>
					<rect x="1525.689" y="1635.498" style="opacity:0.4;fill:#FFFFFF;" width="20.585" height="26.917"/>
				</g>
				<g>
					<rect x="1350.573" y="1608.584" style="fill:#FBC343;" width="217.322" height="26.917"/>
					<rect x="1407.281" y="1608.584" style="opacity:0.4;fill:#BB9132;" width="89.18" height="26.917"/>
					<rect x="1367.371" y="1608.584" style="opacity:0.4;fill:#FFFFFF;" width="20.585" height="26.917"/>
					<rect x="1525.689" y="1608.584" style="opacity:0.4;fill:#FFFFFF;" width="20.585" height="26.917"/>
				</g>
				<g>
					<rect x="1350.573" y="1689.331" style="fill:#FBC343;" width="217.322" height="26.917"/>
					<rect x="1407.281" y="1689.331" style="opacity:0.4;fill:#BB9132;" width="89.18" height="26.917"/>
					<rect x="1367.371" y="1689.331" style="opacity:0.4;fill:#FFFFFF;" width="20.585" height="26.917"/>
					<rect x="1525.689" y="1689.331" style="opacity:0.4;fill:#FFFFFF;" width="20.585" height="26.917"/>
				</g>
				<g>
					<rect x="1350.573" y="1662.418" style="fill:#FBC343;" width="217.322" height="26.917"/>
					<rect x="1407.281" y="1662.418" style="opacity:0.4;fill:#BB9132;" width="89.18" height="26.917"/>
					<rect x="1367.371" y="1662.418" style="opacity:0.4;fill:#FFFFFF;" width="20.585" height="26.917"/>
					<rect x="1525.689" y="1662.418" style="opacity:0.4;fill:#FFFFFF;" width="20.585" height="26.917"/>
				</g>
				<g>
					<rect x="1350.573" y="1716.251" style="fill:#FBC343;" width="217.322" height="26.917"/>
					<rect x="1407.281" y="1716.251" style="opacity:0.4;fill:#BB9132;" width="89.18" height="26.917"/>
					<rect x="1367.371" y="1716.251" style="opacity:0.4;fill:#FFFFFF;" width="20.585" height="26.917"/>
					<rect x="1525.689" y="1716.251" style="opacity:0.4;fill:#FFFFFF;" width="20.585" height="26.917"/>
				</g>
			</g>
			<g>
				
					<rect x="1264.261" y="1277.452" transform="matrix(0.7999 0.6002 -0.6002 0.7999 1049.4937 -565.6344)" style="fill:#FBC343;" width="217.322" height="26.917"/>
				
					<rect x="1322.443" y="1273.033" transform="matrix(0.7999 0.6002 -0.6002 0.7999 1045.6632 -562.9842)" style="opacity:0.4;fill:#BB9132;" width="89.18" height="26.917"/>
				
					<rect x="1297.383" y="1228.498" transform="matrix(0.7999 0.6002 -0.6002 0.7999 1007.0473 -536.2716)" style="opacity:0.4;fill:#FFFFFF;" width="20.585" height="26.917"/>
				
					<rect x="1424.019" y="1323.513" transform="matrix(0.7999 0.6002 -0.6002 0.7999 1089.4258 -593.2607)" style="opacity:0.4;fill:#FFFFFF;" width="20.585" height="26.917"/>
			</g>
		</g>
		
			<line style="fill:none;stroke:#102048;stroke-width:3.75;stroke-miterlimit:10;" x1="285.563" y1="1741.475" x2="1750.243" y2="1741.475"/>
		<path style="fill:#EDF2FF;" d="M1384.768,502.577H996.563c6.356-29.043,35.06-50.933,69.464-50.933
			c10.292,0,20.093,1.957,28.909,5.503c12.835-34.547,42.4-58.76,76.846-58.76c33.83,0,62.944,23.296,76.107,56.803
			c13.573-5.992,29.36-9.416,46.173-9.416C1339.088,445.774,1376.567,470.231,1384.768,502.577z"/>
		<path style="fill:#EDF2FF;" d="M1401.15,870.53h303.611c-4.971-22.715-27.42-39.834-54.327-39.834
			c-8.05,0-15.714,1.53-22.61,4.304c-10.038-27.018-33.161-45.955-60.1-45.955c-26.458,0-49.228,18.219-59.523,44.425
			c-10.615-4.687-22.962-7.364-36.111-7.364C1436.877,826.105,1407.564,845.233,1401.15,870.53z"/>
	</g>
</g>
</svg>
